<svg xmlns="http://www.w3.org/2000/svg" version="1.1" xmlns:xlink="http://www.w3.org/1999/xlink" xmlns:svgjs="http://svgjs.dev/svgjs" width="1440" height="560" preserveAspectRatio="none" viewBox="0 0 1440 560"><g mask="url(&quot;#SvgjsMask1004&quot;)" fill="none"><rect width="1440" height="560" x="0" y="0" fill="rgba(21, 67, 96, 1)"></rect><path d="M0,498.56C104.414,511.289,214.995,528.164,308.626,480.232C405.623,430.577,475.265,336.639,514.72,235.065C552.985,136.555,541.491,28.894,524.454,-75.405C507.694,-178.008,471.755,-273.024,417.264,-361.562C354.166,-464.084,299.515,-592.785,184.385,-627.957C69.215,-663.141,-46.741,-583.919,-157.744,-537.226C-257.221,-495.382,-358.581,-453.481,-427.609,-370.525C-495.885,-288.473,-522.639,-182.959,-540.15,-77.662C-557.989,29.61,-583.016,147.156,-529.437,241.786C-476.688,334.95,-360.11,363.733,-263.781,410.452C-178.646,451.742,-93.924,487.11,0,498.56" fill="#11364d"></path><path d="M1440 1181.954C1553.591 1167.712 1646.154 1089.011 1729.62 1010.658 1802.12 942.5989999999999 1849.73 856.251 1885.708 763.548 1919.9479999999999 675.323 1939.666 583.588 1931.975 489.265 1923.924 390.52 1896.221 294.827 1840.795 212.709 1780.507 123.38799999999998 1702.554 45.488000000000056 1603.616 2.7770000000000437 1497.175-43.173 1373.935-75.64300000000003 1265.047-35.83699999999999 1157.7 3.405999999999949 1108.075 121.24400000000003 1036.283 210.178 967.2819999999999 295.656 874.004 367.815 852.275 475.498 830.092 585.428 875.653 694.5699999999999 917.548 798.596 961.182 906.94 1005.447 1020.549 1099.616 1089.647 1196.356 1160.6309999999999 1320.943 1196.8809999999999 1440 1181.954" fill="#195073"></path></g><defs><mask id="SvgjsMask1004"><rect width="1440" height="560" fill="#ffffff"></rect></mask></defs></svg>